<svg viewBox="0 0 409 453" fill="none" xmlns="http://www.w3.org/2000/svg">
<path d="M181.778 55.1713C195.838 47.0557 213.162 47.0557 227.222 55.1713L362.816 133.434C376.876 141.55 385.538 156.548 385.538 172.779V329.305C385.538 345.536 376.876 360.535 362.816 368.65L227.222 446.913C213.162 455.029 195.838 455.029 181.778 446.913L46.1844 368.65C32.1238 360.535 23.4622 345.536 23.4622 329.305V172.779C23.4622 156.548 32.1238 141.55 46.1844 133.434L181.778 55.1713Z" fill="#D95F78"/>
<path fill-rule="evenodd" clip-rule="evenodd" d="M353.727 149.172L218.133 70.9093C209.697 66.04 199.303 66.04 190.867 70.9093L55.2733 149.172C46.8369 154.042 41.6399 163.041 41.6399 172.779V329.305C41.6399 339.044 46.8369 348.043 55.2733 352.912L190.867 431.175C199.303 436.045 209.697 436.045 218.133 431.175L353.727 352.912C362.163 348.043 367.36 339.044 367.36 329.305V172.779C367.36 163.041 362.163 154.042 353.727 149.172ZM227.222 55.1713C213.162 47.0557 195.838 47.0557 181.778 55.1713L46.1844 133.434C32.1238 141.55 23.4622 156.548 23.4622 172.779V329.305C23.4622 345.536 32.1238 360.535 46.1844 368.65L181.778 446.913C195.838 455.029 213.162 455.029 227.222 446.913L362.816 368.65C376.876 360.535 385.538 345.536 385.538 329.305V172.779C385.538 156.548 376.876 141.55 362.816 133.434L227.222 55.1713Z" fill="#C9042C"/>
<path d="M193.143 276.293L20.4543 176.669C13.4216 172.612 9.08887 165.111 9.08887 156.994V129.351C9.08887 121.16 13.4998 113.603 20.6331 109.573L193.322 12.0251C200.259 8.10672 208.741 8.10672 215.678 12.0251L388.367 109.573C395.5 113.603 399.911 121.16 399.911 129.351V156.994C399.911 165.111 395.578 172.612 388.546 176.669L215.857 276.293C208.829 280.347 200.171 280.347 193.143 276.293Z" fill="#D95F78"/>
<path fill-rule="evenodd" clip-rule="evenodd" d="M123.867 46.688C126.328 42.3142 131.87 40.763 136.245 43.2232L306.44 138.931C316.457 144.564 322.655 155.16 322.655 166.649V182.895C322.655 187.913 318.586 191.981 313.567 191.981C308.547 191.981 304.478 187.913 304.478 182.895V166.649C304.478 161.725 301.821 157.184 297.528 154.77L127.333 59.0621C122.958 56.6018 121.406 51.0617 123.867 46.688Z" fill="#C9042C"/>
<path fill-rule="evenodd" clip-rule="evenodd" d="M285.133 46.688C282.672 42.3142 277.13 40.763 272.755 43.2232L102.56 138.931C92.5433 144.564 86.3446 155.16 86.3446 166.649V182.895C86.3446 187.913 90.4138 191.981 95.4335 191.981C100.453 191.981 104.522 187.913 104.522 182.895V166.649C104.522 161.725 107.179 157.184 111.472 154.77L281.667 59.0621C286.042 56.6018 287.594 51.0617 285.133 46.688Z" fill="#C9042C"/>
<path fill-rule="evenodd" clip-rule="evenodd" d="M188.851 4.11425C198.562 -1.37142 210.438 -1.37142 220.149 4.11425L392.838 101.663C402.825 107.304 409 117.883 409 129.351V156.994C409 168.358 402.934 178.859 393.088 184.539L220.4 284.163C210.56 289.839 198.44 289.839 188.6 284.163L15.9116 184.539C6.06578 178.859 0 168.358 0 156.994V129.351C0 117.883 6.17536 107.304 16.162 101.663L188.851 4.11425ZM211.207 19.9359C207.045 17.5849 201.955 17.5849 197.793 19.9359L25.1043 117.484C20.8244 119.902 18.1778 124.436 18.1778 129.351V156.994C18.1778 161.864 20.7774 166.365 24.997 168.799L197.686 268.423C201.903 270.855 207.097 270.855 211.314 268.423L384.003 168.799C388.223 166.365 390.822 161.864 390.822 156.994V129.351C390.822 124.436 388.176 119.902 383.896 117.484L211.207 19.9359Z" fill="#C9042C"/>
<path fill-rule="evenodd" clip-rule="evenodd" d="M131.789 364.622C126.769 364.622 122.7 360.554 122.7 355.535L122.7 282.845C122.7 277.826 126.769 273.758 131.789 273.758C136.808 273.758 140.878 277.826 140.878 282.845L140.878 355.535C140.878 360.554 136.808 364.622 131.789 364.622Z" fill="#C9042C"/>
<path fill-rule="evenodd" clip-rule="evenodd" d="M277.211 364.622C272.192 364.622 268.122 360.554 268.122 355.535L268.122 282.845C268.122 277.826 272.192 273.758 277.211 273.758C282.231 273.758 286.3 277.826 286.3 282.845L286.3 355.535C286.3 360.554 282.231 364.622 277.211 364.622Z" fill="#C9042C"/>
</svg>
